<svg width="20" height="21" viewBox="0 0 20 21" fill="none" xmlns="http://www.w3.org/2000/svg">
<path d="M10.1329 9.75837C10.0496 9.75003 9.94956 9.75003 9.85789 9.75837C7.87456 9.6917 6.29956 8.0667 6.29956 6.0667C6.29956 4.02503 7.94956 2.3667 9.99956 2.3667C12.0412 2.3667 13.6996 4.02503 13.6996 6.0667C13.6912 8.0667 12.1162 9.6917 10.1329 9.75837Z" stroke="#475467" stroke-width="1.5" stroke-linecap="round" stroke-linejoin="round"/>
<path d="M5.96636 12.8337C3.94969 14.1837 3.94969 16.3837 5.96636 17.7254C8.25802 19.2587 12.0164 19.2587 14.308 17.7254C16.3247 16.3754 16.3247 14.1754 14.308 12.8337C12.0247 11.3087 8.26636 11.3087 5.96636 12.8337Z" stroke="#475467" stroke-width="1.5" stroke-linecap="round" stroke-linejoin="round"/>
</svg>
