<svg width="30" height="30" viewBox="0 0 30 30" fill="none" xmlns="http://www.w3.org/2000/svg">
<path d="M15 9C15.1989 9 15.3897 9.07902 15.5303 9.21967C15.671 9.36032 15.75 9.55109 15.75 9.75C15.75 9.94891 15.671 10.1397 15.5303 10.2803C15.3897 10.421 15.1989 10.5 15 10.5C14.8011 10.5 14.6103 10.421 14.4697 10.2803C14.329 10.1397 14.25 9.94891 14.25 9.75C14.25 9.55109 14.329 9.36032 14.4697 9.21967C14.6103 9.07902 14.8011 9 15 9Z" stroke="#616161" stroke-width="2" stroke-linecap="round" stroke-linejoin="round"/>
<path d="M15 14.25C15.1989 14.25 15.3897 14.329 15.5303 14.4697C15.671 14.6103 15.75 14.8011 15.75 15C15.75 15.1989 15.671 15.3897 15.5303 15.5303C15.3897 15.671 15.1989 15.75 15 15.75C14.8011 15.75 14.6103 15.671 14.4697 15.5303C14.329 15.3897 14.25 15.1989 14.25 15C14.25 14.8011 14.329 14.6103 14.4697 14.4697C14.6103 14.329 14.8011 14.25 15 14.25Z" stroke="#616161" stroke-width="2" stroke-linecap="round" stroke-linejoin="round"/>
<path d="M15 19.5C15.1989 19.5 15.3897 19.579 15.5303 19.7197C15.671 19.8603 15.75 20.0511 15.75 20.25C15.75 20.4489 15.671 20.6397 15.5303 20.7803C15.3897 20.921 15.1989 21 15 21C14.8011 21 14.6103 20.921 14.4697 20.7803C14.329 20.6397 14.25 20.4489 14.25 20.25C14.25 20.0511 14.329 19.8603 14.4697 19.7197C14.6103 19.579 14.8011 19.5 15 19.5Z" stroke="#616161" stroke-width="2" stroke-linecap="round" stroke-linejoin="round"/>
</svg>
