<svg width="44" height="44" viewBox="0 0 44 44" fill="none" xmlns="http://www.w3.org/2000/svg">
<rect width="44" height="44" rx="22" fill="none"/>
<path d="M19 27V28C19 28.7956 19.3161 29.5587 19.8787 30.1213C20.4413 30.6839 21.2044 31 22 31C22.7956 31 23.5587 30.6839 24.1213 30.1213C24.6839 29.5587 25 28.7956 25 28V27M20 15C20 14.4696 20.2107 13.9609 20.5858 13.5858C20.9609 13.2107 21.4696 13 22 13C22.5304 13 23.0391 13.2107 23.4142 13.5858C23.7893 13.9609 24 14.4696 24 15C25.1484 15.543 26.1274 16.3883 26.8321 17.4453C27.5367 18.5023 27.9404 19.7311 28 21V24C28.0753 24.6217 28.2954 25.2171 28.6428 25.7381C28.9902 26.2592 29.4551 26.6914 30 27H14C14.5449 26.6914 15.0098 26.2592 15.3572 25.7381C15.7046 25.2171 15.9247 24.6217 16 24V21C16.0596 19.7311 16.4633 18.5023 17.1679 17.4453C17.8726 16.3883 18.8516 15.543 20 15Z" stroke="#667085" stroke-width="2" stroke-linecap="round" stroke-linejoin="round"/>
</svg>
