<svg width="16" height="16" viewBox="0 0 16 16" fill="none" xmlns="http://www.w3.org/2000/svg">
<path d="M8.83398 14.6667L14.6673 8.83337M8.83398 14.6667V9.66671C8.83398 9.44569 8.92178 9.23373 9.07806 9.07745C9.23434 8.92117 9.4463 8.83337 9.66732 8.83337H14.6673M8.83398 14.6667H3.00065C2.55862 14.6667 2.1347 14.4911 1.82214 14.1786C1.50958 13.866 1.33398 13.4421 1.33398 13V3.00004C1.33398 2.55801 1.50958 2.13409 1.82214 1.82153C2.1347 1.50897 2.55862 1.33337 3.00065 1.33337H13.0007C13.4427 1.33337 13.8666 1.50897 14.1792 1.82153C14.4917 2.13409 14.6673 2.55801 14.6673 3.00004V8.83337" stroke="#424242" stroke-width="1.5" stroke-linecap="round" stroke-linejoin="round"/>
</svg>
