<svg width="20" height="21" viewBox="0 0 20 21" fill="none" xmlns="http://www.w3.org/2000/svg">
<path d="M1.90845 7.18367V15.292C1.90845 16.8753 3.03345 17.5253 4.40011 16.742L6.35845 15.6253C6.78345 15.3837 7.49178 15.3587 7.93345 15.5837L12.3084 17.7753C12.7501 17.992 13.4584 17.9753 13.8834 17.7337L17.4918 15.667C17.9501 15.4003 18.3334 14.7503 18.3334 14.217V6.10867C18.3334 4.52534 17.2084 3.87534 15.8418 4.65867L13.8834 5.77534C13.4584 6.017 12.7501 6.042 12.3084 5.817L7.93345 3.63367C7.49178 3.417 6.78345 3.43367 6.35845 3.67534L2.75011 5.742C2.28345 6.00867 1.90845 6.65867 1.90845 7.18367Z" stroke="#475467" stroke-width="1.5" stroke-linecap="round" stroke-linejoin="round"/>
<path d="M7.13306 4.03369V14.867" stroke="#475467" stroke-width="1.5" stroke-linecap="round" stroke-linejoin="round"/>
<path d="M13.1086 6.2168V17.3668" stroke="#475467" stroke-width="1.5" stroke-linecap="round" stroke-linejoin="round"/>
</svg>
