<svg width="20" height="21" viewBox="0 0 20 21" fill="none" xmlns="http://www.w3.org/2000/svg">
<path d="M16.6666 7.57503V15.7C16.6666 18.2 15.1749 19.0334 13.3333 19.0334H6.66659C4.82492 19.0334 3.33325 18.2 3.33325 15.7V7.57503C3.33325 4.8667 4.82492 4.2417 6.66659 4.2417C6.66659 4.75837 6.8749 5.22503 7.21656 5.5667C7.55823 5.90836 8.02492 6.1167 8.54159 6.1167H11.4583C12.4916 6.1167 13.3333 5.27503 13.3333 4.2417C15.1749 4.2417 16.6666 4.8667 16.6666 7.57503Z" stroke="#344054" stroke-width="1.5" stroke-linecap="round" stroke-linejoin="round"/>
<path d="M13.3334 4.2417C13.3334 5.27503 12.4917 6.1167 11.4584 6.1167H8.54175C8.02508 6.1167 7.55839 5.90836 7.21673 5.5667C6.87506 5.22503 6.66675 4.75837 6.66675 4.2417C6.66675 3.20837 7.50841 2.3667 8.54175 2.3667H11.4584C11.9751 2.3667 12.4418 2.57504 12.7834 2.9167C13.1251 3.25837 13.3334 3.72503 13.3334 4.2417Z" stroke="#344054" stroke-width="1.5" stroke-linecap="round" stroke-linejoin="round"/>
<path d="M6.66675 11.5337H10.0001" stroke="#344054" stroke-width="1.5" stroke-linecap="round" stroke-linejoin="round"/>
<path d="M6.66675 14.8667H13.3334" stroke="#344054" stroke-width="1.5" stroke-linecap="round" stroke-linejoin="round"/>
</svg>
