<svg width="20" height="21" viewBox="0 0 20 21" fill="none" xmlns="http://www.w3.org/2000/svg">
<path d="M16.2501 11.117C16.2501 9.96702 17.1834 9.03369 18.3334 9.03369V8.20036C18.3334 4.86702 17.5001 4.03369 14.1667 4.03369H5.83341C2.50008 4.03369 1.66675 4.86702 1.66675 8.20036V8.61702C2.81675 8.61702 3.75008 9.55036 3.75008 10.7004C3.75008 11.8504 2.81675 12.7837 1.66675 12.7837V13.2004C1.66675 16.5337 2.50008 17.367 5.83341 17.367H14.1667C17.5001 17.367 18.3334 16.5337 18.3334 13.2004C17.1834 13.2004 16.2501 12.267 16.2501 11.117Z" stroke="#344054" stroke-width="1.5" stroke-linecap="round" stroke-linejoin="round"/>
<path d="M8.33325 4.03369L8.33325 17.367" stroke="#344054" stroke-width="1.5" stroke-linecap="round" stroke-linejoin="round" stroke-dasharray="5 5"/>
</svg>
