<svg width="17" height="16" viewBox="0 0 17 16" fill="none" xmlns="http://www.w3.org/2000/svg">
<path d="M10.6366 7.99995C10.6366 9.31995 9.56995 10.3866 8.24995 10.3866C6.92995 10.3866 5.86328 9.31995 5.86328 7.99995C5.86328 6.67995 6.92995 5.61328 8.24995 5.61328C9.56995 5.61328 10.6366 6.67995 10.6366 7.99995Z" fill="white" stroke="white" stroke-width="1.5" stroke-linecap="round" stroke-linejoin="round"/>
<path d="M8.2499 13.5138C10.6032 13.5138 12.7966 12.1271 14.3232 9.72714C14.9232 8.78714 14.9232 7.20714 14.3232 6.26714C12.7966 3.86714 10.6032 2.48047 8.2499 2.48047C5.89656 2.48047 3.70323 3.86714 2.17656 6.26714C1.57656 7.20714 1.57656 8.78714 2.17656 9.72714C3.70323 12.1271 5.89656 13.5138 8.2499 13.5138Z" stroke="white" stroke-width="1.5" stroke-linecap="round" stroke-linejoin="round"/>
</svg>
