<svg width="21" height="20" viewBox="0 0 21 20" fill="none" xmlns="http://www.w3.org/2000/svg">
<path d="M8.79267 1.15016L8.79306 1.14985C9.8773 0.279042 11.6175 0.284136 12.718 1.16073C12.7181 1.16084 12.7182 1.16094 12.7184 1.16105L19.264 6.39756C19.2646 6.39802 19.2652 6.39849 19.2657 6.39895C19.643 6.70711 19.9696 7.18942 20.1804 7.74099C20.391 8.29218 20.4696 8.86987 20.3962 9.35096L19.1373 16.8845C19.1372 16.885 19.1372 16.8855 19.1371 16.8859C18.8874 18.3188 17.4932 19.5 16.05 19.5H5.44996C3.98549 19.5 2.6225 18.3476 2.37294 16.8965C2.37288 16.8961 2.37282 16.8958 2.37276 16.8955L1.11313 9.35761L1.11293 9.35646C1.03079 8.8718 1.10452 8.29296 1.31465 7.74192C1.52476 7.19094 1.85548 6.70909 2.2418 6.40086L2.24267 6.40016L8.79267 1.15016ZM10.75 17.25C11.4361 17.25 12 16.6862 12 16V13C12 12.3139 11.4361 11.75 10.75 11.75C10.0638 11.75 9.49996 12.3139 9.49996 13V16C9.49996 16.6862 10.0638 17.25 10.75 17.25Z" fill="#3669AE" stroke="#3669AE"/>
</svg>
