<svg width="25" height="24" viewBox="0 0 25 24" fill="none" xmlns="http://www.w3.org/2000/svg">
<path d="M10.7927 3.15016L10.7931 3.14985C11.8773 2.27904 13.6175 2.28414 14.718 3.16073C14.7181 3.16084 14.7182 3.16094 14.7184 3.16105L21.264 8.39756C21.2646 8.39802 21.2652 8.39849 21.2657 8.39895C21.643 8.70711 21.9696 9.18942 22.1804 9.74099C22.391 10.2922 22.4696 10.8699 22.3962 11.351L21.1373 18.8845C21.1372 18.885 21.1372 18.8855 21.1371 18.8859C20.8874 20.3188 19.4932 21.5 18.05 21.5H7.44996C5.98549 21.5 4.6225 20.3476 4.37294 18.8965C4.37288 18.8961 4.37282 18.8958 4.37276 18.8955L3.11313 11.3576L3.11293 11.3565C3.03079 10.8718 3.10452 10.293 3.31465 9.74192C3.52476 9.19094 3.85548 8.70909 4.2418 8.40086L4.24267 8.40016L10.7927 3.15016ZM12.75 19.25C13.4361 19.25 14 18.6862 14 18V15C14 14.3139 13.4361 13.75 12.75 13.75C12.0638 13.75 11.5 14.3139 11.5 15V18C11.5 18.6862 12.0638 19.25 12.75 19.25Z" fill="#3669AE" stroke="#3669AE"/>
</svg>
