<svg width="25" height="24" viewBox="0 0 25 24" fill="none" xmlns="http://www.w3.org/2000/svg">
<path d="M12.25 2C9.63 2 7.5 4.13 7.5 6.75C7.5 9.32 9.51 11.4 12.13 11.49C12.21 11.48 12.29 11.48 12.35 11.49C12.37 11.49 12.38 11.49 12.4 11.49C12.41 11.49 12.41 11.49 12.42 11.49C14.98 11.4 16.99 9.32 17 6.75C17 4.13 14.87 2 12.25 2Z" fill="#3669AE"/>
<path d="M17.3309 14.1499C14.5409 12.2899 9.99094 12.2899 7.18094 14.1499C5.91094 14.9999 5.21094 16.1499 5.21094 17.3799C5.21094 18.6099 5.91094 19.7499 7.17094 20.5899C8.57094 21.5299 10.4109 21.9999 12.2509 21.9999C14.0909 21.9999 15.9309 21.5299 17.3309 20.5899C18.5909 19.7399 19.2909 18.5999 19.2909 17.3599C19.2809 16.1299 18.5909 14.9899 17.3309 14.1499Z" fill="#3669AE"/>
</svg>
