<svg width="17" height="16" viewBox="0 0 17 16" fill="none" xmlns="http://www.w3.org/2000/svg">
<path d="M1.58325 5.99967V4.33301C1.58325 2.67301 2.92325 1.33301 4.58325 1.33301H6.24992" stroke="#344054" stroke-width="1.5" stroke-linecap="round" stroke-linejoin="round"/>
<path d="M10.25 1.33301H11.9167C13.5767 1.33301 14.9167 2.67301 14.9167 4.33301V5.99967" stroke="#344054" stroke-width="1.5" stroke-linecap="round" stroke-linejoin="round"/>
<path d="M14.9167 10.667V11.667C14.9167 13.327 13.5767 14.667 11.9167 14.667H10.9167" stroke="#344054" stroke-width="1.5" stroke-linecap="round" stroke-linejoin="round"/>
<path d="M6.24992 14.6667H4.58325C2.92325 14.6667 1.58325 13.3267 1.58325 11.6667V10" stroke="#344054" stroke-width="1.5" stroke-linecap="round" stroke-linejoin="round"/>
<path d="M7.25008 4.66699V6.00033C7.25008 6.66699 6.91675 7.00033 6.25008 7.00033H4.91675C4.25008 7.00033 3.91675 6.66699 3.91675 6.00033V4.66699C3.91675 4.00033 4.25008 3.66699 4.91675 3.66699H6.25008C6.91675 3.66699 7.25008 4.00033 7.25008 4.66699Z" stroke="#344054" stroke-width="1.5" stroke-linecap="round" stroke-linejoin="round"/>
<path d="M12.5833 4.66699V6.00033C12.5833 6.66699 12.25 7.00033 11.5833 7.00033H10.25C9.58333 7.00033 9.25 6.66699 9.25 6.00033V4.66699C9.25 4.00033 9.58333 3.66699 10.25 3.66699H11.5833C12.25 3.66699 12.5833 4.00033 12.5833 4.66699Z" stroke="#344054" stroke-width="1.5" stroke-linecap="round" stroke-linejoin="round"/>
<path d="M7.25008 10V11.3333C7.25008 12 6.91675 12.3333 6.25008 12.3333H4.91675C4.25008 12.3333 3.91675 12 3.91675 11.3333V10C3.91675 9.33333 4.25008 9 4.91675 9H6.25008C6.91675 9 7.25008 9.33333 7.25008 10Z" stroke="#344054" stroke-width="1.5" stroke-linecap="round" stroke-linejoin="round"/>
<path d="M12.5833 10V11.3333C12.5833 12 12.25 12.3333 11.5833 12.3333H10.25C9.58333 12.3333 9.25 12 9.25 11.3333V10C9.25 9.33333 9.58333 9 10.25 9H11.5833C12.25 9 12.5833 9.33333 12.5833 10Z" stroke="#344054" stroke-width="1.5" stroke-linecap="round" stroke-linejoin="round"/>
</svg>
