<svg width="25" height="24" viewBox="0 0 25 24" fill="none" xmlns="http://www.w3.org/2000/svg">
<path d="M15.75 2V12C15.75 13.1 14.85 14 13.75 14H2.75V6C2.75 3.79 4.54 2 6.75 2H15.75Z" stroke="#3669AE" stroke-width="1.5" stroke-linecap="round" stroke-linejoin="round"/>
<path d="M22.75 14V17C22.75 18.66 21.41 20 19.75 20H18.75C18.75 18.9 17.85 18 16.75 18C15.65 18 14.75 18.9 14.75 20H10.75C10.75 18.9 9.85 18 8.75 18C7.65 18 6.75 18.9 6.75 20H5.75C4.09 20 2.75 18.66 2.75 17V14H13.75C14.85 14 15.75 13.1 15.75 12V5H17.59C18.31 5 18.97 5.39001 19.33 6.01001L21.04 9H19.75C19.2 9 18.75 9.45 18.75 10V13C18.75 13.55 19.2 14 19.75 14H22.75Z" stroke="#3669AE" stroke-width="1.5" stroke-linecap="round" stroke-linejoin="round"/>
<path d="M8.75 22C9.85457 22 10.75 21.1046 10.75 20C10.75 18.8954 9.85457 18 8.75 18C7.64543 18 6.75 18.8954 6.75 20C6.75 21.1046 7.64543 22 8.75 22Z" stroke="#3669AE" stroke-width="1.5" stroke-linecap="round" stroke-linejoin="round"/>
<path d="M16.75 22C17.8546 22 18.75 21.1046 18.75 20C18.75 18.8954 17.8546 18 16.75 18C15.6454 18 14.75 18.8954 14.75 20C14.75 21.1046 15.6454 22 16.75 22Z" stroke="#3669AE" stroke-width="1.5" stroke-linecap="round" stroke-linejoin="round"/>
<path d="M22.75 12V14H19.75C19.2 14 18.75 13.55 18.75 13V10C18.75 9.45 19.2 9 19.75 9H21.04L22.75 12Z" stroke="#3669AE" stroke-width="1.5" stroke-linecap="round" stroke-linejoin="round"/>
</svg>
