<svg width="16" height="16" viewBox="0 0 16 16" fill="none" xmlns="http://www.w3.org/2000/svg">
<g clip-path="url(#clip0_1022_87643)">
<path d="M4.9875 12.5185H10.5104V9.00391H0.46875V11.5143C0.46875 11.7807 0.574438 12.0362 0.762969 12.2245C0.95125 12.4128 1.20656 12.5185 1.47291 12.5185C1.74956 12.5185 1.975 12.5185 1.975 12.5185" stroke="#667085" stroke-miterlimit="10" stroke-linecap="round" stroke-linejoin="round"/>
<path d="M10.5104 9.00377V2.97877C10.5104 2.71267 10.4047 2.45711 10.2162 2.26883C10.0279 2.08055 9.77259 1.97461 9.50625 1.97461C7.58228 1.97461 3.39691 1.97461 1.47291 1.97461C1.20656 1.97461 0.95125 2.08055 0.762969 2.26883C0.574438 2.45711 0.46875 2.71267 0.46875 2.97877C0.46875 4.92133 0.46875 9.00377 0.46875 9.00377H10.5104Z" stroke="#667085" stroke-width="1.17188" stroke-miterlimit="10" stroke-linecap="round" stroke-linejoin="round"/>
<path d="M13.523 12.5185H14.5272C14.7935 12.5185 15.0488 12.4128 15.2371 12.2246C15.4256 12.0363 15.5313 11.7807 15.5313 11.5144C15.5313 10.4931 15.5313 8.8699 15.5313 7.49771C15.5313 6.11146 14.4074 4.9873 13.0209 4.9873H10.5105V12.5186" stroke="#667085" stroke-width="1.17188" stroke-miterlimit="10" stroke-linecap="round" stroke-linejoin="round"/>
<path d="M3.48135 14.0252C4.31323 14.0252 4.9876 13.3508 4.9876 12.5189C4.9876 11.6871 4.31323 11.0127 3.48135 11.0127C2.64947 11.0127 1.9751 11.6871 1.9751 12.5189C1.9751 13.3508 2.64947 14.0252 3.48135 14.0252Z" stroke="#667085" stroke-width="1.17188" stroke-miterlimit="10" stroke-linecap="round" stroke-linejoin="round"/>
<path d="M12.0167 14.0252C12.8486 14.0252 13.523 13.3508 13.523 12.5189C13.523 11.6871 12.8486 11.0127 12.0167 11.0127C11.1849 11.0127 10.5105 11.6871 10.5105 12.5189C10.5105 13.3508 11.1849 14.0252 12.0167 14.0252Z" stroke="#667085" stroke-width="1.17188" stroke-miterlimit="10" stroke-linecap="round" stroke-linejoin="round"/>
<path d="M13.0208 4.9873V9.00396H15.5312" stroke="#667085" stroke-width="1.17188" stroke-miterlimit="10" stroke-linecap="round" stroke-linejoin="round"/>
</g>
<defs>
<clipPath id="clip0_1022_87643">
<rect width="16" height="16" fill="white"/>
</clipPath>
</defs>
</svg>
