<svg width="25" height="24" viewBox="0 0 25 24" fill="none" xmlns="http://www.w3.org/2000/svg">
<path d="M17.25 21H7.25C3.25 21 2.25 20 2.25 16V8C2.25 4 3.25 3 7.25 3H17.25C21.25 3 22.25 4 22.25 8V16C22.25 20 21.25 21 17.25 21Z" stroke="#3669AE" stroke-width="1.5" stroke-linecap="round" stroke-linejoin="round"/>
<path d="M14.25 8H19.25" stroke="#3669AE" stroke-width="1.5" stroke-linecap="round" stroke-linejoin="round"/>
<path d="M15.25 12H19.25" stroke="#3669AE" stroke-width="1.5" stroke-linecap="round" stroke-linejoin="round"/>
<path d="M17.25 16H19.25" stroke="#3669AE" stroke-width="1.5" stroke-linecap="round" stroke-linejoin="round"/>
<path d="M8.74994 11.2899C9.74958 11.2899 10.5599 10.4796 10.5599 9.47992C10.5599 8.48029 9.74958 7.66992 8.74994 7.66992C7.75031 7.66992 6.93994 8.48029 6.93994 9.47992C6.93994 10.4796 7.75031 11.2899 8.74994 11.2899Z" stroke="#3669AE" stroke-width="1.5" stroke-linecap="round" stroke-linejoin="round"/>
<path d="M12.25 16.3298C12.11 14.8798 10.96 13.7398 9.51 13.6098C9.01 13.5598 8.5 13.5598 7.99 13.6098C6.54 13.7498 5.39 14.8798 5.25 16.3298" stroke="#3669AE" stroke-width="1.5" stroke-linecap="round" stroke-linejoin="round"/>
</svg>
