<svg width="34" height="34" viewBox="0 0 34 34" fill="none" xmlns="http://www.w3.org/2000/svg">
<rect width="34" height="34" rx="17" fill="none"/>
<path d="M20.1667 11.374V10.334C20.1667 10.0607 19.94 9.83398 19.6667 9.83398C19.3933 9.83398 19.1667 10.0607 19.1667 10.334V11.334H14.8333V10.334C14.8333 10.0607 14.6067 9.83398 14.3333 9.83398C14.06 9.83398 13.8333 10.0607 13.8333 10.334V11.374C12.0333 11.5407 11.16 12.614 11.0267 14.2073C11.0133 14.4007 11.1733 14.5607 11.36 14.5607H22.64C22.8333 14.5607 22.9933 14.394 22.9733 14.2073C22.84 12.614 21.9667 11.5407 20.1667 11.374Z" fill="white"/>
<path d="M21.6667 19C20.1933 19 19 20.1933 19 21.6667C19 22.1667 19.14 22.64 19.3867 23.04C19.8467 23.8133 20.6933 24.3333 21.6667 24.3333C22.64 24.3333 23.4867 23.8133 23.9467 23.04C24.1933 22.64 24.3333 22.1667 24.3333 21.6667C24.3333 20.1933 23.14 19 21.6667 19ZM23.0467 21.38L21.6267 22.6933C21.5333 22.78 21.4067 22.8267 21.2867 22.8267C21.16 22.8267 21.0333 22.78 20.9333 22.68L20.2733 22.02C20.08 21.8267 20.08 21.5067 20.2733 21.3133C20.4667 21.12 20.7867 21.12 20.98 21.3133L21.3 21.6333L22.3667 20.6467C22.5667 20.46 22.8867 20.4733 23.0733 20.6733C23.26 20.8733 23.2467 21.1867 23.0467 21.38Z" fill="white"/>
<path d="M22.3333 15.5605H11.6667C11.3 15.5605 11 15.8605 11 16.2272V20.3339C11 22.3339 12 23.6672 14.3333 23.6672H17.62C18.08 23.6672 18.4 23.2205 18.2533 22.7872C18.12 22.4005 18.0067 21.9739 18.0067 21.6672C18.0067 19.6472 19.6533 18.0005 21.6733 18.0005C21.8667 18.0005 22.06 18.0139 22.2467 18.0472C22.6467 18.1072 23.0067 17.7939 23.0067 17.3939V16.2339C23 15.8605 22.7 15.5605 22.3333 15.5605ZM15.14 21.1405C15.0133 21.2605 14.84 21.3339 14.6667 21.3339C14.4933 21.3339 14.32 21.2605 14.1933 21.1405C14.0733 21.0139 14 20.8405 14 20.6672C14 20.4939 14.0733 20.3205 14.1933 20.1939C14.26 20.1339 14.3267 20.0872 14.4133 20.0539C14.66 19.9472 14.9533 20.0072 15.14 20.1939C15.26 20.3205 15.3333 20.4939 15.3333 20.6672C15.3333 20.8405 15.26 21.0139 15.14 21.1405ZM15.14 18.8072C15.1067 18.8339 15.0733 18.8605 15.04 18.8872C15 18.9139 14.96 18.9339 14.92 18.9472C14.88 18.9672 14.84 18.9805 14.8 18.9872C14.7533 18.9939 14.7067 19.0005 14.6667 19.0005C14.4933 19.0005 14.32 18.9272 14.1933 18.8072C14.0733 18.6805 14 18.5072 14 18.3339C14 18.1605 14.0733 17.9872 14.1933 17.8605C14.3467 17.7072 14.58 17.6339 14.8 17.6805C14.84 17.6872 14.88 17.7005 14.92 17.7205C14.96 17.7339 15 17.7539 15.04 17.7805C15.0733 17.8072 15.1067 17.8339 15.14 17.8605C15.26 17.9872 15.3333 18.1605 15.3333 18.3339C15.3333 18.5072 15.26 18.6805 15.14 18.8072ZM17.4733 18.8072C17.3467 18.9272 17.1733 19.0005 17 19.0005C16.8267 19.0005 16.6533 18.9272 16.5267 18.8072C16.4067 18.6805 16.3333 18.5072 16.3333 18.3339C16.3333 18.1605 16.4067 17.9872 16.5267 17.8605C16.78 17.6139 17.2267 17.6139 17.4733 17.8605C17.5933 17.9872 17.6667 18.1605 17.6667 18.3339C17.6667 18.5072 17.5933 18.6805 17.4733 18.8072Z" fill="white"/>
</svg>
