<svg width="16" height="16" viewBox="0 0 16 16" fill="none" xmlns="http://www.w3.org/2000/svg">
<path fill-rule="evenodd" clip-rule="evenodd" d="M0.5 2.28353C0.5 1.13294 1.43274 0.200195 2.58333 0.200195H5.08333C6.23393 0.200195 7.16667 1.13294 7.16667 2.28353V4.78353C7.16667 5.93412 6.23393 6.86686 5.08333 6.86686H2.58333C1.43274 6.86686 0.5 5.93412 0.5 4.78353V2.28353ZM2.58333 1.86686H5.08333C5.31345 1.86686 5.5 2.05341 5.5 2.28353V4.78353C5.5 5.01365 5.31345 5.2002 5.08333 5.2002H2.58333C2.35321 5.2002 2.16667 5.01365 2.16667 4.78353V2.28353C2.16667 2.05341 2.35321 1.86686 2.58333 1.86686Z" fill="#344054"/>
<path fill-rule="evenodd" clip-rule="evenodd" d="M8.83333 2.28353C8.83333 1.13294 9.76607 0.200195 10.9167 0.200195H13.4167C14.5673 0.200195 15.5 1.13294 15.5 2.28353V4.78353C15.5 5.93412 14.5673 6.86686 13.4167 6.86686H10.9167C9.76607 6.86686 8.83333 5.93412 8.83333 4.78353V2.28353ZM10.9167 1.86686H13.4167C13.6468 1.86686 13.8333 2.05341 13.8333 2.28353V4.78353C13.8333 5.01365 13.6468 5.2002 13.4167 5.2002H10.9167C10.6865 5.2002 10.5 5.01365 10.5 4.78353V2.28353C10.5 2.05341 10.6865 1.86686 10.9167 1.86686Z" fill="#344054"/>
<path fill-rule="evenodd" clip-rule="evenodd" d="M10.9167 8.53353C9.76607 8.53353 8.83333 9.46627 8.83333 10.6169V13.1169C8.83333 14.2675 9.76607 15.2002 10.9167 15.2002H13.4167C14.5673 15.2002 15.5 14.2675 15.5 13.1169V10.6169C15.5 9.46627 14.5673 8.53353 13.4167 8.53353H10.9167ZM13.4167 10.2002H10.9167C10.6865 10.2002 10.5 10.3867 10.5 10.6169V13.1169C10.5 13.347 10.6865 13.5335 10.9167 13.5335H13.4167C13.6468 13.5335 13.8333 13.347 13.8333 13.1169V10.6169C13.8333 10.3867 13.6468 10.2002 13.4167 10.2002Z" fill="#344054"/>
<path fill-rule="evenodd" clip-rule="evenodd" d="M0.5 10.6169C0.5 9.46627 1.43274 8.53353 2.58333 8.53353H5.08333C6.23393 8.53353 7.16667 9.46627 7.16667 10.6169V13.1169C7.16667 14.2675 6.23393 15.2002 5.08333 15.2002H2.58333C1.43274 15.2002 0.5 14.2675 0.5 13.1169V10.6169ZM2.58333 10.2002H5.08333C5.31345 10.2002 5.5 10.3867 5.5 10.6169V13.1169C5.5 13.347 5.31345 13.5335 5.08333 13.5335H2.58333C2.35321 13.5335 2.16667 13.347 2.16667 13.1169V10.6169C2.16667 10.3867 2.35321 10.2002 2.58333 10.2002Z" fill="#344054"/>
</svg>
