<svg width="20" height="21" viewBox="0 0 20 21" fill="none" xmlns="http://www.w3.org/2000/svg">
<path d="M9.99988 12.3667H10.8332C11.7499 12.3667 12.4999 11.6167 12.4999 10.7V2.3667H4.99988C3.74988 2.3667 2.65822 3.05836 2.09155 4.07502" stroke="#475467" stroke-width="1.5" stroke-linecap="round" stroke-linejoin="round"/>
<path d="M1.66675 14.8667C1.66675 16.25 2.78341 17.3667 4.16675 17.3667H5.00008C5.00008 16.45 5.75008 15.7 6.66675 15.7C7.58342 15.7 8.33342 16.45 8.33342 17.3667H11.6667C11.6667 16.45 12.4167 15.7 13.3334 15.7C14.2501 15.7 15.0001 16.45 15.0001 17.3667H15.8334C17.2167 17.3667 18.3334 16.25 18.3334 14.8667V12.3667H15.8334C15.3751 12.3667 15.0001 11.9917 15.0001 11.5334V9.03337C15.0001 8.57503 15.3751 8.20003 15.8334 8.20003H16.9084L15.4834 5.70837C15.1834 5.19171 14.6334 4.8667 14.0334 4.8667H12.5001V10.7C12.5001 11.6167 11.7501 12.3667 10.8334 12.3667H10.0001" stroke="#475467" stroke-width="1.5" stroke-linecap="round" stroke-linejoin="round"/>
<path d="M6.66667 19.0335C7.58714 19.0335 8.33333 18.2873 8.33333 17.3669C8.33333 16.4464 7.58714 15.7002 6.66667 15.7002C5.74619 15.7002 5 16.4464 5 17.3669C5 18.2873 5.74619 19.0335 6.66667 19.0335Z" stroke="#475467" stroke-width="1.5" stroke-linecap="round" stroke-linejoin="round"/>
<path d="M13.3334 19.0335C14.2539 19.0335 15.0001 18.2873 15.0001 17.3669C15.0001 16.4464 14.2539 15.7002 13.3334 15.7002C12.4129 15.7002 11.6667 16.4464 11.6667 17.3669C11.6667 18.2873 12.4129 19.0335 13.3334 19.0335Z" stroke="#475467" stroke-width="1.5" stroke-linecap="round" stroke-linejoin="round"/>
<path d="M18.3333 10.7002V12.3669H15.8333C15.375 12.3669 15 11.9919 15 11.5335V9.03353C15 8.5752 15.375 8.2002 15.8333 8.2002H16.9083L18.3333 10.7002Z" stroke="#475467" stroke-width="1.5" stroke-linecap="round" stroke-linejoin="round"/>
<path d="M1.66675 7.3667H6.66675" stroke="#475467" stroke-width="1.5" stroke-linecap="round" stroke-linejoin="round"/>
<path d="M1.66675 9.8667H5.00008" stroke="#475467" stroke-width="1.5" stroke-linecap="round" stroke-linejoin="round"/>
<path d="M1.66675 12.3667H3.33341" stroke="#475467" stroke-width="1.5" stroke-linecap="round" stroke-linejoin="round"/>
</svg>
