<svg width="20" height="21" viewBox="0 0 20 21" fill="none" xmlns="http://www.w3.org/2000/svg">
<path d="M6.66675 2.3667V4.8667" stroke="#475467" stroke-width="1.5" stroke-miterlimit="10" stroke-linecap="round" stroke-linejoin="round"/>
<path d="M13.3333 2.3667V4.8667" stroke="#475467" stroke-width="1.5" stroke-miterlimit="10" stroke-linecap="round" stroke-linejoin="round"/>
<path d="M2.91675 8.27539H17.0834" stroke="#475467" stroke-width="1.5" stroke-miterlimit="10" stroke-linecap="round" stroke-linejoin="round"/>
<path d="M18.3334 16.5335C18.3334 17.1585 18.1584 17.7502 17.8501 18.2502C17.2751 19.2169 16.2167 19.8669 15.0001 19.8669C14.1584 19.8669 13.3918 19.5585 12.8084 19.0335C12.5501 18.8169 12.3251 18.5502 12.1501 18.2502C11.8417 17.7502 11.6667 17.1585 11.6667 16.5335C11.6667 14.6919 13.1584 13.2002 15.0001 13.2002C16.0001 13.2002 16.8917 13.6418 17.5001 14.3335C18.0167 14.9252 18.3334 15.6919 18.3334 16.5335Z" stroke="#475467" stroke-width="1.5" stroke-miterlimit="10" stroke-linecap="round" stroke-linejoin="round"/>
<path d="M13.7002 16.5335L14.5252 17.3585L16.3002 15.7168" stroke="#475467" stroke-width="1.5" stroke-linecap="round" stroke-linejoin="round"/>
<path d="M17.5 7.78337V14.3334C16.8917 13.6417 16 13.2 15 13.2C13.1583 13.2 11.6667 14.6917 11.6667 16.5334C11.6667 17.1584 11.8417 17.75 12.15 18.25C12.325 18.55 12.55 18.8167 12.8083 19.0334H6.66667C3.75 19.0334 2.5 17.3667 2.5 14.8667V7.78337C2.5 5.28337 3.75 3.6167 6.66667 3.6167H13.3333C16.25 3.6167 17.5 5.28337 17.5 7.78337Z" stroke="#475467" stroke-width="1.5" stroke-miterlimit="10" stroke-linecap="round" stroke-linejoin="round"/>
<path d="M9.99632 12.1169H10.0038" stroke="#475467" stroke-width="2" stroke-linecap="round" stroke-linejoin="round"/>
<path d="M6.91185 12.1169H6.91933" stroke="#475467" stroke-width="2" stroke-linecap="round" stroke-linejoin="round"/>
<path d="M6.91185 14.6169H6.91933" stroke="#475467" stroke-width="2" stroke-linecap="round" stroke-linejoin="round"/>
</svg>
