<svg width="20" height="21" viewBox="0 0 20 21" fill="none" xmlns="http://www.w3.org/2000/svg">
<g clip-path="url(#clip0_692_6901)">
<path d="M6.23437 16.3483H13.138V11.9551H0.585938V15.0931C0.585938 15.426 0.718047 15.7455 0.953711 15.9808C1.18906 16.2162 1.5082 16.3483 1.84113 16.3483C2.18695 16.3483 2.46875 16.3483 2.46875 16.3483" stroke="#475467" stroke-width="1.3" stroke-miterlimit="10" stroke-linecap="round" stroke-linejoin="round"/>
<path d="M13.138 11.9554V4.42414C13.138 4.09152 13.0059 3.77207 12.7702 3.53672C12.5349 3.30137 12.2157 3.16895 11.8828 3.16895C9.47785 3.16895 4.24613 3.16895 1.84113 3.16895C1.5082 3.16895 1.18906 3.30137 0.953711 3.53672C0.718047 3.77207 0.585938 4.09152 0.585938 4.42414C0.585938 6.85234 0.585938 11.9554 0.585938 11.9554H13.138Z" stroke="#475467" stroke-width="1.3" stroke-miterlimit="10" stroke-linecap="round" stroke-linejoin="round"/>
<path d="M16.9036 16.3486H18.1588C18.4917 16.3486 18.8108 16.2165 19.0462 15.9811C19.2818 15.7458 19.414 15.4263 19.414 15.0934C19.414 13.8168 19.414 11.7878 19.414 10.0726C19.414 8.33977 18.0091 6.93457 16.2759 6.93457H13.1379V16.3486" stroke="#475467" stroke-width="1.3" stroke-miterlimit="10" stroke-linecap="round" stroke-linejoin="round"/>
<path d="M4.35156 18.2314C5.39141 18.2314 6.23438 17.3885 6.23438 16.3486C6.23438 15.3088 5.39141 14.4658 4.35156 14.4658C3.31171 14.4658 2.46875 15.3088 2.46875 16.3486C2.46875 17.3885 3.31171 18.2314 4.35156 18.2314Z" stroke="#475467" stroke-width="1.3" stroke-miterlimit="10" stroke-linecap="round" stroke-linejoin="round"/>
<path d="M15.0208 18.2314C16.0606 18.2314 16.9036 17.3885 16.9036 16.3486C16.9036 15.3088 16.0606 14.4658 15.0208 14.4658C13.9809 14.4658 13.1379 15.3088 13.1379 16.3486C13.1379 17.3885 13.9809 18.2314 15.0208 18.2314Z" stroke="#475467" stroke-width="1.3" stroke-miterlimit="10" stroke-linecap="round" stroke-linejoin="round"/>
<path d="M16.2761 6.93457V11.9554H19.4141" stroke="#475467" stroke-width="1.3" stroke-miterlimit="10" stroke-linecap="round" stroke-linejoin="round"/>
</g>
<defs>
<clipPath id="clip0_692_6901">
<rect width="20" height="20" fill="white" transform="translate(0 0.700195)"/>
</clipPath>
</defs>
</svg>
