<svg width="20" height="21" viewBox="0 0 20 21" fill="none" xmlns="http://www.w3.org/2000/svg">
<path d="M14.9999 6.6667C14.9499 6.65837 14.8916 6.65837 14.8416 6.6667C13.6916 6.62504 12.7749 5.68337 12.7749 4.5167C12.7749 3.32503 13.7332 2.3667 14.9249 2.3667C16.1166 2.3667 17.0749 3.33337 17.0749 4.5167C17.0666 5.68337 16.1499 6.62504 14.9999 6.6667Z" stroke="#475467" stroke-width="1.5" stroke-linecap="round" stroke-linejoin="round"/>
<path d="M14.1419 12.7335C15.2836 12.9252 16.5419 12.7252 17.4253 12.1335C18.6003 11.3502 18.6003 10.0668 17.4253 9.2835C16.5336 8.69183 15.2586 8.49183 14.1169 8.69183" stroke="#475467" stroke-width="1.5" stroke-linecap="round" stroke-linejoin="round"/>
<path d="M4.97539 6.6667C5.02539 6.65837 5.08372 6.65837 5.13372 6.6667C6.28372 6.62504 7.20039 5.68337 7.20039 4.5167C7.20039 3.32503 6.24206 2.3667 5.05039 2.3667C3.85873 2.3667 2.90039 3.33337 2.90039 4.5167C2.90872 5.68337 3.82539 6.62504 4.97539 6.6667Z" stroke="#475467" stroke-width="1.5" stroke-linecap="round" stroke-linejoin="round"/>
<path d="M5.83377 12.7335C4.69211 12.9252 3.43377 12.7252 2.55044 12.1335C1.37544 11.3502 1.37544 10.0668 2.55044 9.2835C3.44211 8.69183 4.7171 8.49183 5.85877 8.69183" stroke="#475467" stroke-width="1.5" stroke-linecap="round" stroke-linejoin="round"/>
<path d="M10.0001 12.8918C9.95014 12.8835 9.89181 12.8835 9.84181 12.8918C8.69181 12.8501 7.77515 11.9085 7.77515 10.7418C7.77515 9.55013 8.73348 8.5918 9.92514 8.5918C11.1168 8.5918 12.0751 9.55847 12.0751 10.7418C12.0668 11.9085 11.1501 12.8585 10.0001 12.8918Z" stroke="#475467" stroke-width="1.5" stroke-linecap="round" stroke-linejoin="round"/>
<path d="M7.57485 15.517C6.39985 16.3003 6.39985 17.5837 7.57485 18.367C8.90819 19.2587 11.0915 19.2587 12.4249 18.367C13.5999 17.5837 13.5999 16.3003 12.4249 15.517C11.0999 14.6337 8.90819 14.6337 7.57485 15.517Z" stroke="#475467" stroke-width="1.5" stroke-linecap="round" stroke-linejoin="round"/>
</svg>
