<svg width="20" height="20" viewBox="0 0 20 20" fill="none" xmlns="http://www.w3.org/2000/svg">
<path d="M15.1726 13.9936C15.498 14.319 15.498 14.8467 15.1726 15.1721C14.8471 15.4975 14.3195 15.4975 13.9941 15.1721L10 11.1781L6.00607 15.1721C5.68064 15.4976 5.153 15.4976 4.82756 15.1721C4.50212 14.8467 4.50212 14.3191 4.82755 13.9936L8.82149 9.99962L4.82739 6.00559C4.50195 5.68015 4.50195 5.15252 4.82739 4.82708C5.15283 4.50165 5.68047 4.50165 6.00591 4.82708L9.99999 8.8211L13.9939 4.8271C14.3194 4.50166 14.847 4.50165 15.1724 4.82709C15.4979 5.15252 15.4979 5.68016 15.1724 6.0056L11.1785 9.9996L15.1726 13.9936Z" fill="#F16363"/>
</svg>
