<svg width="30" height="30" viewBox="0 0 30 30" fill="none" xmlns="http://www.w3.org/2000/svg">
<path d="M13.5 13.3125C13.9142 13.3125 14.25 13.6483 14.25 14.0625V18.5625C14.25 18.9767 13.9142 19.3125 13.5 19.3125C13.0858 19.3125 12.75 18.9767 12.75 18.5625V14.0625C12.75 13.6483 13.0858 13.3125 13.5 13.3125Z" fill="#475467"/>
<path d="M17.25 14.0625C17.25 13.6483 16.9142 13.3125 16.5 13.3125C16.0858 13.3125 15.75 13.6483 15.75 14.0625V18.5625C15.75 18.9767 16.0858 19.3125 16.5 19.3125C16.9142 19.3125 17.25 18.9767 17.25 18.5625V14.0625Z" fill="#475467"/>
<path fill-rule="evenodd" clip-rule="evenodd" d="M19.5 10.5V9.75C19.5 8.50736 18.4926 7.5 17.25 7.5H12.75C11.5074 7.5 10.5 8.50736 10.5 9.75V10.5H9.375C8.96079 10.5 8.625 10.8358 8.625 11.25C8.625 11.6642 8.96079 12 9.375 12H9.75V20.25C9.75 21.4926 10.7574 22.5 12 22.5H18C19.2426 22.5 20.25 21.4926 20.25 20.25V12H20.625C21.0392 12 21.375 11.6642 21.375 11.25C21.375 10.8358 21.0392 10.5 20.625 10.5H19.5ZM17.25 9H12.75C12.3358 9 12 9.33579 12 9.75V10.5H18V9.75C18 9.33579 17.6642 9 17.25 9ZM18.75 12H11.25V20.25C11.25 20.6642 11.5858 21 12 21H18C18.4142 21 18.75 20.6642 18.75 20.25V12Z" fill="#475467"/>
</svg>
