<svg width="100" height="61" viewBox="0 0 100 61" fill="none" xmlns="http://www.w3.org/2000/svg">
<path fill-rule="evenodd" clip-rule="evenodd" d="M17.1768 0.984999C10.3046 2.5215 2.82631 6.42969 0.165489 13.324C-0.193994 14.1704 0.00968883 15.1866 1.00737 15.6719C1.79 16.0337 2.94537 15.7541 3.30485 14.9077C6.02117 7.80397 14.4416 4.59045 21.4267 3.73292C36.2861 1.89248 50.1426 9.10493 60.6522 19.0012C66.0233 24.1478 70.6781 29.9577 75.0023 35.9945C79.7071 42.6203 83.8803 49.5542 87.5219 56.7962C87.49 56.8822 87.4494 56.9868 87.4088 57.0914C87.38 57.1656 87.3512 57.2398 87.3255 57.3074C87.1575 57.1749 86.9248 57.0563 86.7465 56.9655C86.6751 56.9292 86.6125 56.8973 86.5662 56.8707C85.6994 56.2741 84.8487 55.6594 83.998 55.0447C83.1473 54.43 82.2965 53.8153 81.4297 53.2187C74.7745 48.4972 68.0462 43.7117 61.3179 38.9262C60.5907 38.355 59.5552 38.3525 58.9119 39.0798C58.333 39.7343 58.3393 40.9004 59.0664 41.4715C61.1293 42.9524 63.1911 44.4162 65.2528 45.88C67.3145 47.3437 69.3762 48.8074 71.439 50.2883C73.2823 51.5773 75.1096 52.8845 76.9369 54.1916C78.7642 55.4988 80.5915 56.806 82.4348 58.095C83.377 58.7897 84.246 59.4204 85.1838 60.0467C86.1216 60.673 87.1192 61.1583 88.2103 60.9514C90.1349 60.6474 90.725 58.7272 91.2324 57.0766C91.3014 56.852 91.3689 56.6324 91.438 56.4225L99.9408 30.9717C100.232 30.1297 99.4092 29.1529 98.4204 28.8043C97.4403 28.5924 96.6507 29.1917 96.3644 30.102C95.6442 32.3095 94.9068 34.518 94.1693 36.7265C93.4319 38.935 92.6945 41.1435 91.9743 43.351C91.2346 45.6448 90.4698 47.9168 89.7085 50.1789C89.4779 50.8642 89.2475 51.5485 89.0183 52.2323C85.152 44.8888 80.773 37.8495 75.7976 31.2091C66.5815 18.8973 55.201 7.27249 40.1797 2.33014C32.7722 -0.147621 24.7964 -0.736437 17.1768 0.984999ZM87.5262 57.5247C87.5698 57.5762 87.5862 57.5777 87.5835 57.5655C87.5809 57.5533 87.559 57.5275 87.5262 57.5247Z" fill="#3669AE"/>
</svg>
