<svg width="16" height="16" viewBox="0 0 16 16" fill="none" xmlns="http://www.w3.org/2000/svg">
<path d="M1.83301 8.00016C1.83301 4.60297 4.60248 1.8335 7.99967 1.8335C11.3969 1.8335 14.1663 4.60297 14.1663 8.00016C14.1663 11.3974 11.3969 14.1668 7.99967 14.1668C4.60248 14.1668 1.83301 11.3974 1.83301 8.00016ZM8.99967 10.6668V9.00016H10.6663C11.2158 9.00016 11.6663 8.54964 11.6663 8.00016C11.6663 7.45069 11.2158 7.00016 10.6663 7.00016H8.99967V5.3335C8.99967 4.78402 8.54915 4.3335 7.99967 4.3335C7.4502 4.3335 6.99967 4.78402 6.99967 5.3335V7.00016H5.33301C4.78353 7.00016 4.33301 7.45069 4.33301 8.00016C4.33301 8.54964 4.78353 9.00016 5.33301 9.00016H6.99967V10.6668C6.99967 11.2163 7.4502 11.6668 7.99967 11.6668C8.54915 11.6668 8.99967 11.2163 8.99967 10.6668Z" fill="white" stroke="white"/>
</svg>
